 http://img839.imageshack.us/img839/1696/conanthebarbarian2011v.jpg

Country.......: USA
Genre.........: Fantasy, Adventure, Action
Date release..: 17.08.2011 [World]
Director......: Marcus Nispel
Writers.......: Thomas Dean Donnelly, Joshua Oppenheimer
Duration......: 100 min.
More..........: http://www.imdb.com/title/tt0816462
Trailer.......: http://www.imdb.com/video/imdb/vi3588856857
Trailer.......:

Pilot :
The tale of Conan the Cimmerian and his adventures across the continent of Hyboria on a quest to avenge the murder of his father and the slaughter of his village. 

Cats :
Jason Momoa   	 ...  	Conan
Stephen Lang 	... 	Khalar Zym
Rachel Nichols 	... 	Tamara
Ron Perlman 	... 	Corin
Rose McGowan 	... 	Marique
Bob Sapp 	... 	Ukafa
Leo Howard 	... 	Young Conan
Steven ODonnell 	... 	Lucius
Nonso Anozie 	... 	Artus
Raad Rawi 	... 	Fassir
Laila Rouass 	... 	Fialla
Said Taghmaoui 	... 	Ela Shan
Milton Welsh 	... 	Remo
Borislav Iliev 	... 	Wild Man
Nathan Jones 	... 	Akhun 

Data Technical :
!!! SAMPLE !!!
Audio.....: English
Subtitles.: None
Format                           : AVI
Format/Info                      : Audio Video Interleave
File size                        : 1.37 GiB
Duration                         : 1h 39mn
Overall bit rate                 : 1 975 Kbps
Writing library                  : VirtualDub build 30586/release
Video
ID                               : 0
Format                           : MPEG-4 Visual
Format profile                   : Advanced Simple@L5
Format settings, BVOP            : Yes
Format settings, QPel            : No
Format settings, GMC             : No warppoints
Format settings, Matrix          : Default (MPEG)
Muxing mode                      : Packed bitstream
Codec ID                         : XVID
Codec ID/Hint                    : XviD
Duration                         : 1h 39mn
Bit rate                         : 1 837 Kbps
Width                            : 720 pixels
Height                           : 336 pixels
Display aspect ratio             : 2.2:1
Frame rate                       : 25.000 fps
Color space                      : YUV
Chroma subsampling               : 4:2:0
Bit depth                        : 8 bits
Scan type                        : Progressive
Bits/(Pixel*Frame)               : 0.304
Stream size                      : 1.28 GiB (93%)
Writing library                  : XviD 64
Audio
ID                               : 1
Format                           : MPEG Audio
Format version                   : Version 1
Format profile                   : Layer 3
Mode                             : Joint stereo
Mode extension                   : MS Stereo
Codec ID                         : 55
Codec ID/Hint                    : MP3
Duration                         : 1h 39mn
Bit rate mode                    : Constant
Bit rate                         : 128 Kbps
Channel(s)                       : 2 channels
Sampling rate                    : 44.1 KHz
Stream size                      : 91.1 MiB (6%)
Alignment                        : Split accross interleaves
Interleave, duration             : 40 ms (1.00 video frame)
Writing library                  : LAME3.98r
Encoding settings                : -m j -V 4 -q 2 -lowpass 17 -b 128

Screen : 
http://img24.imageshack.us/img24/2103/conanthebarbarian2011s1.jpg 
http://img811.imageshack.us/img811/961/conanthebarbarian2011s2.jpg 
http://img23.imageshack.us/img23/9661/conanthebarbarian2011s3.jpg 
http://img148.imageshack.us/img148/6605/conanthebarbarian2011s4.jpg 
http://img819.imageshack.us/img819/2850/conanthebarbarian2011s5.jpg